<svg viewBox="0 0 551 632" version="1.1" xmlns="http://www.w3.org/2000/svg" desc="Created with imagetracer.js version 1.2.6" ><path fill="rgb(211,181,109)" stroke="rgb(211,181,109)" stroke-width="0" opacity="0.996078431372549" d="M 275.5 10 L 289 10.5 L 268 12.5 L 298.5 13 L 298.5 12 L 291 11.5 L 300.5 11 L 323.5 15 L 350.5 24 L 373.5 35 Q 402.8 52.2 424 77.5 L 420 75.5 L 425.5 83 L 426 81.5 L 424.5 79 Q 440 96 450 118.5 L 448 119.5 L 446.5 117 L 442 119.5 L 444 120 L 446 124.5 L 445.5 126 L 447 126.5 L 446.5 128 L 448 128.5 L 448 130.5 Q 446.9 133.8 449.5 133 L 449.5 135 L 451 135.5 Q 448.5 137 452 138.5 L 457 151.5 Q 454.5 153 458 154.5 L 463.5 175 L 465 168.5 L 461 156.5 L 462 154.5 L 459 143.5 L 460 143.5 L 467 174.5 L 468 200.5 L 467 201.5 L 467 213.5 L 465 227.5 L 459.5 248 L 459 243.5 L 461 238.5 L 462 223.5 L 463 222.5 L 463 190.5 L 457 157.5 Q 450.7 136.3 441 118.5 Q 423.4 87.6 397.5 65 Q 367.9 40.1 325 28.5 L 328.5 28 Q 352.3 34.7 371.5 46 L 370.5 44 L 353.5 35 L 325.5 25 L 301.5 20 L 279.5 19 L 278.5 20 L 264.5 20 L 252.5 22 L 226.5 28 L 192.5 43 L 180 51.5 L 180.5 53 Q 207 33 246.5 26 L 246.5 27 Q 176.5 43 138 90.5 Q 120 111.5 108.5 139 L 108 137.5 L 110 133.5 L 107 135.5 L 106 140.5 L 108 140.5 L 101 158.5 L 97 175.5 L 95 188.5 L 94 214.5 L 98 243.5 L 97 243.5 L 92 222.5 L 90 192.5 L 91 191.5 L 92 170.5 L 95 154.5 L 104 127.5 Q 118.6 94.9 141 71 L 145 68.5 L 148.5 64 Q 174.7 38.7 211.5 24 L 244.5 14 L 275.5 10 Z M 300 13 L 300 14 L 305 14 L 300 13 Z M 326 21 L 324 24 L 326 23 Q 328 22 327 25 L 330 24 L 330 26 L 340 28 L 346 30 Q 349 29 348 32 L 351 32 Q 354 33 353 30 L 332 21 L 326 21 Z M 386 49 L 384 51 L 393 56 Q 395 57 394 53 L 386 49 Z M 162 54 L 158 59 L 163 55 L 162 54 Z M 155 60 L 143 73 L 156 61 L 155 60 Z M 121 111 L 112 126 L 113 128 L 122 112 L 121 111 Z M 440 114 L 442 118 L 443 117 L 440 114 Z M 93 203 L 92 210 L 93 210 L 93 203 Z " /><path fill="rgb(211,181,109)" stroke="rgb(211,181,109)" stroke-width="0" opacity="0.996078431372549" d="M 277.5 22 L 300.5 23 L 315 25.5 L 310.5 26 L 300.5 24 L 281.5 24 L 280.5 23 L 279.5 24 L 254.5 25 L 254.5 24 L 276.5 23 L 277.5 22 Z " /><path fill="rgb(211,181,109)" stroke="rgb(211,181,109)" stroke-width="0" opacity="0.996078431372549" d="M 316.5 26 L 324 27.5 L 320.5 28 L 316.5 27 L 316.5 26 Z " /><path fill="rgb(211,181,109)" stroke="rgb(211,181,109)" stroke-width="0" opacity="0.996078431372549" d="M 179.5 95 L 183 97.5 L 181.5 97 L 179.5 95 Z " /><path fill="rgb(211,181,109)" stroke="rgb(211,181,109)" stroke-width="0" opacity="0.996078431372549" d="M 183.5 104 L 195 111.5 L 192.5 112 L 183 107 L 183 113.5 L 172.5 150 L 172 147.5 L 177 126.5 L 176 126.5 L 165 165.5 L 155.5 207 L 153 206 L 150 230.5 L 150 260.5 L 148 267.5 L 153 291.5 L 152 291.5 L 147 268.5 L 147 241.5 L 146 240.5 L 146 238.5 Q 144.3 232.3 147 230.5 L 146 225.5 L 147 224.5 L 148 207.5 L 150 203.5 L 154 179.5 L 159.5 165 L 159 166.5 L 159.5 176 L 166 151.5 L 171 136.5 L 173 134.5 L 178 115.5 L 183.5 104 Z M 150 210 L 148 214 L 149 217 L 150 215 L 150 210 Z " /><path fill="rgb(211,181,109)" stroke="rgb(211,181,109)" stroke-width="0" opacity="0.996078431372549" d="M 174.5 112 L 175 115.5 L 173.5 118 L 173 115.5 L 174.5 112 Z " /><path fill="rgb(211,181,109)" stroke="rgb(211,181,109)" stroke-width="0" opacity="0.996078431372549" d="M 207.5 112 Q 252.3 129.7 284 160.5 L 295.5 173 L 301 177.5 L 316 198.5 L 328 223.5 L 337 258.5 L 337 280.5 L 337 282.5 L 337 296.5 L 336 297.5 L 335 312.5 L 328 342.5 L 315 376.5 Q 300.3 401.8 289 430.5 L 281.5 461 L 281 458.5 L 285 440.5 L 285 428.5 L 289.5 418 L 290.5 425 L 294 414.5 L 301 401.5 L 302 395.5 L 307 389.5 L 307 387.5 Q 307.7 384.5 304 386 L 290.5 411 L 289 412.5 L 286.5 414 L 285 409.5 L 286 408.5 L 286 396.5 L 287.5 395 L 290 396.5 L 289 398.5 L 290 400.5 L 289 405.5 L 290 405.5 L 295.5 393 L 296 394.5 L 294 399.5 L 295 399.5 L 300 387.5 L 298 388.5 L 296.5 392 L 296 390.5 L 304.5 374 L 305 375.5 L 304 378.5 L 306 377.5 L 310 365.5 L 309 365.5 L 307.5 368 L 308 366.5 L 313.5 352 L 314.5 355 L 319 341.5 L 318 341.5 L 315.5 348 L 315 346.5 L 323 322.5 L 326.5 294 L 327 304.5 L 322 331.5 L 323 331.5 L 330 305.5 L 331 291 L 334 289.5 L 334 267.5 L 331 244.5 L 321 215.5 L 298.5 176 L 296.5 177 L 293 174.5 L 289 168 L 260 150 Q 261.1 147.3 258.5 148 Q 244.1 135.9 225.5 128 L 227.5 131 L 230 132.5 L 228.5 132 L 218 125.5 L 219.5 126 L 224.5 128 L 223.5 126 L 213.5 121 L 214.5 124 L 203 116.5 Q 201.3 111.3 206.5 113 L 207.5 112 Z M 332 296 L 333 303 L 334 300 L 334 298 Q 335 295 332 296 Z M 315 364 L 313 369 L 315 368 L 315 364 Z M 288 407 L 287 412 L 289 411 L 288 407 Z " /><path fill="rgb(211,181,109)" stroke="rgb(211,181,109)" stroke-width="0" opacity="0.996078431372549" d="M 188.5 113 L 196 123.5 L 208 147.5 L 206 147.5 L 207.5 151 L 208.5 149 L 228 187.5 L 235 207 Q 238.5 208.1 237 200.5 L 242 180.5 L 244.5 176 L 245 181.5 L 240 201.5 L 239 213.5 L 244 223.5 L 253.5 251 L 257 234.5 L 268 204 Q 272 202.6 270 209.5 L 269 209.5 L 268.5 208 L 268 210.5 L 269 214.5 L 263.5 231 L 262.5 229 L 262 231.5 L 263 233.5 L 262 233.5 L 261.5 232 L 261 235.5 L 262 237.5 L 261 237.5 L 260.5 236 L 259 242.5 L 260 245.5 Q 256.7 251.2 257 260.5 L 263 274.5 L 272.5 306 L 274 291.5 L 278 279.5 L 286 264.5 L 294.5 242 L 295 245.5 L 291 261.5 L 279 290.5 L 275 314.5 L 280 331.5 L 283 351.5 L 282 353.5 L 284.5 359 L 289 334.5 L 295.5 320 L 296.5 322 L 297 319.5 L 296.5 318 L 298 318.5 L 297 315.5 Q 310 293.5 318.5 267 L 319 270.5 L 311 296.5 L 295 332.5 L 289.5 355 L 288.5 352 L 288 355.5 L 289 360.5 L 286 365.5 Q 290.6 374.4 289 389.5 L 288 389.5 L 288 375.5 L 285.5 375 L 279.5 364 Q 276.9 364.8 278 361.5 L 280 360.5 L 280.5 362 L 282 357.5 L 281 350 L 277.5 351 L 274.5 347 Q 271.8 348.3 274 349.5 Q 272.9 359.1 275 364 L 270 360.5 Q 270.8 357.9 267.5 359 L 263.5 354 L 261.5 355 L 253 348.5 L 252.5 346 L 251 346.5 L 249.5 344 L 239 338.5 L 240.5 338 Q 259.1 346.4 272 360.5 L 273.5 362 L 273 360.5 L 270 338.5 L 273 337.5 L 273 335.5 L 270 322.5 L 266.5 319 L 263 316.5 L 255.5 307 L 249 302.5 L 248.5 301 L 246.5 302 L 244 298 L 241 298 Q 242.1 295.3 239.5 296 L 238.5 294 Q 253 300 262.5 311 L 263.5 308 L 265 311.5 L 263 314.5 L 266.5 317 L 268.5 313 L 270 313.5 L 271 311.5 L 266 301.5 L 264 288.5 L 254 262.5 L 254 258.5 L 256 258.5 L 255.5 256 L 253.5 257 L 250 251.5 L 243 227.5 L 240.5 224 L 240 225.5 L 243 234.5 L 242.5 237 L 241 238.5 L 240 238.5 L 235 225.5 L 236 220.5 L 232 208 L 234.5 209 L 235 207.5 L 230.5 200 L 230 205 L 222.5 203 L 222.5 205 Q 211.8 194.2 197.5 187 L 189 178.5 L 193.5 182 L 216.5 195 L 224.5 202 L 225 199.5 Q 209.6 157.9 190 120.5 L 188.5 113 Z M 237 210 L 237 218 L 238 218 Q 239 212 237 210 Z M 282 275 L 277 286 L 278 288 Q 276 289 279 290 L 284 277 Q 285 274 282 275 Z M 311 291 L 304 304 L 305 306 L 311 294 L 311 291 Z " /><path fill="rgb(211,181,109)" stroke="rgb(211,181,109)" stroke-width="0" opacity="0.996078431372549" d="M 450.5 120 L 459 141.5 L 458 141.5 L 454 133.5 L 454.5 132 L 453 131.5 L 454 130.5 Q 450.9 128.8 452.5 127 L 451 126.5 L 452 124 L 450 123.5 L 450.5 122 L 449 121.5 L 450.5 120 Z " /><path fill="rgb(211,181,109)" stroke="rgb(211,181,109)" stroke-width="0" opacity="0.996078431372549" d="M 234.5 135 L 242 140.5 L 239.5 139 Q 234.9 138.3 234.5 135 Z " /><path fill="rgb(211,181,109)" stroke="rgb(211,181,109)" stroke-width="0" opacity="0.996078431372549" d="M 245.5 142 L 255 149.5 L 251.5 147 Q 246.5 145.5 245.5 142 Z " /><path fill="rgb(211,181,109)" stroke="rgb(211,181,109)" stroke-width="0" opacity="0.996078431372549" d="M 169.5 159 L 170 162.5 L 164.5 183 L 164 179.5 L 169.5 159 Z " /><path fill="rgb(211,181,109)" stroke="rgb(211,181,109)" stroke-width="0" opacity="0.996078431372549" d="M 281.5 171 L 290 180.5 L 281 172.5 L 281.5 171 Z " /><path fill="rgb(211,181,109)" stroke="rgb(211,181,109)" stroke-width="0" opacity="0.996078431372549" d="M 290.5 182 L 297 189.5 L 294 187.5 L 290.5 182 Z " /><path fill="rgb(211,181,109)" stroke="rgb(211,181,109)" stroke-width="0" opacity="0.996078431372549" d="M 269.5 185 Q 272.5 189.5 271 198.5 L 269.5 203 L 269.5 185 Z " /><path fill="rgb(211,181,109)" stroke="rgb(211,181,109)" stroke-width="0" opacity="0.996078431372549" d="M 405.5 193 L 406 195 L 402 197.5 Q 401.2 200.1 404.5 199 L 407 202.5 L 408.5 210 L 411.5 206 L 415 220.5 L 415 251.5 L 413 253.5 L 412 263.5 L 412 265.5 L 411 269.5 L 411 271.5 L 410 283.5 L 404 303.5 L 386 332.5 L 369.5 349 L 336.5 372 L 322.5 378 L 323 376.5 L 327.5 365 Q 356.4 351.4 376 328.5 Q 388.4 314.4 395.5 295 L 396 296.5 L 393 303.5 L 395 302.5 L 398 292.5 L 397 292.5 L 396.5 294 L 396 292.5 L 402 273.5 L 404.5 249 L 405.5 252 L 407 239.5 L 406 239.5 L 405.5 242 L 404 211.5 L 405 207.5 L 404 203 L 393.5 205 L 393.5 204 L 402 199.5 L 398.5 199 L 392.5 200 L 390 198.5 L 405.5 193 Z M 410 258 L 406 267 L 406 275 L 408 275 L 410 268 L 410 258 Z M 404 290 L 397 304 L 398 306 L 404 295 L 404 290 Z M 395 310 L 390 317 L 392 317 L 395 313 L 395 310 Z M 378 328 L 373 335 L 378 331 L 378 328 Z M 341 359 L 339 360 L 338 362 L 342 360 L 341 359 Z " /><path fill="rgb(211,181,109)" stroke="rgb(211,181,109)" stroke-width="0" opacity="0.996078431372549" d="M 299.5 194 L 305 201.5 L 303 200.5 L 299.5 194 Z " /><path fill="rgb(211,181,109)" stroke="rgb(211,181,109)" stroke-width="0" opacity="0.996078431372549" d="M 161.5 195 L 162 200.5 L 160 207.5 L 158.5 232 L 158 215.5 L 161.5 195 Z " /><path fill="rgb(211,181,109)" stroke="rgb(211,181,109)" stroke-width="0" opacity="0.996078431372549" d="M 175.5 203 Q 179.2 215.3 188.5 222 L 198.5 229 Q 224.8 238.2 245.5 253 L 245 251.5 L 244 248.5 L 245 248.5 L 249 259.5 L 245.5 257 Q 237 249 223.5 246 L 224.5 248 L 229 250.5 L 227.5 250 L 214 242.5 L 215.5 243 L 218.5 244 L 217.5 242 L 191.5 226 L 194.5 230 L 207 238.5 L 205.5 238 Q 192.3 231.3 183 220.5 L 176 207.5 L 175.5 203 Z M 186 220 L 185 222 L 191 226 L 186 220 Z M 214 237 L 215 239 L 222 242 L 224 242 L 214 237 Z " /><path fill="rgb(211,181,109)" stroke="rgb(211,181,109)" stroke-width="0" opacity="0.996078431372549" d="M 305.5 203 L 314 218.5 L 313 218.5 L 305.5 203 Z " /><path fill="rgb(211,181,109)" stroke="rgb(211,181,109)" stroke-width="0" opacity="0.996078431372549" d="M 375.5 203 Q 380.6 202.4 382 205.5 Q 381.1 208.9 386.5 207 L 385.5 209 L 355.5 223 L 341 234.5 L 340.5 236 L 339 231.5 L 341 226 L 344 224.5 Q 342.3 221.3 340.5 225 L 338 224.5 L 348.5 216 L 358 212.5 L 359.5 211 L 375.5 203 Z " /><path fill="rgb(211,181,109)" stroke="rgb(211,181,109)" stroke-width="0" opacity="0.996078431372549" d="M 228.5 208 L 233 218.5 L 232 218.5 L 228.5 208 Z " /><path fill="rgb(211,181,109)" stroke="rgb(211,181,109)" stroke-width="0" opacity="0.996078431372549" d="M 398.5 210 L 399 212.5 L 374 253.5 L 375.5 254 L 397.5 243 L 394.5 247 L 374.5 258 L 366 264.5 L 354 288 L 363.5 284 L 363.5 285 L 360 286 Q 358.9 288.7 361.5 288 L 363.5 287 L 365.5 287 L 371 286 L 373 282.5 L 371.5 282 L 368.5 283 L 368.5 282 L 388.5 274 L 395.5 269 L 389.5 276 L 380.5 282 L 360.5 290 L 350 296.5 L 338.5 323 L 338 321.5 L 340 310.5 L 349 285.5 L 351 268.5 L 353 262.5 L 354 244.5 L 356.5 229 L 359 261.5 L 358 266.5 L 360 265.5 Q 376.4 234.9 398.5 210 Z M 369 253 L 366 257 L 367 258 L 369 255 L 369 253 Z M 352 277 L 350 283 L 351 286 L 353 282 L 352 277 Z " /><path fill="rgb(211,181,109)" stroke="rgb(211,181,109)" stroke-width="0" opacity="0.996078431372549" d="M 318.5 230 Q 331 253.5 328 292.5 L 327 292.5 L 326 259.5 L 318.5 230 Z " /><path fill="rgb(211,181,109)" stroke="rgb(211,181,109)" stroke-width="0" opacity="0.996078431372549" d="M 157.5 236 L 159 267.5 L 162 281.5 L 161 281.5 Q 161.7 276.2 158 275.5 L 157.5 236 Z " /><path fill="rgb(211,181,109)" stroke="rgb(211,181,109)" stroke-width="0" opacity="0.996078431372549" d="M 14.5 237 L 19.5 237 L 23 239 L 26 245.5 L 24.5 245 Q 21.9 244.2 23 247.5 Q 28.2 255.8 29.5 268 L 30.5 257 Q 33.1 262.9 32 272.5 L 36 285.5 L 36 299.5 L 37 300.5 L 37 302.5 L 42 338.5 L 46 355.5 L 45 359.5 L 46 359.5 L 46.5 357 Q 47.8 369.8 54 377.5 L 53 381.5 L 55 382.5 L 54 379.5 L 55 379.5 L 63 392.5 Q 59.5 394 62 395.5 Q 65.6 404.9 73.5 410 Q 81.7 419.7 94.5 425 L 93.5 423 L 89 419.5 L 91.5 421 L 107.5 431 L 136 444.5 L 134.5 445 L 129.5 443 L 129.5 444 L 142.5 451 L 150.5 453 L 150.5 452 L 143 448.5 L 144.5 448 L 157 454.5 L 155 455.5 L 158 457.5 Q 158.9 460.9 153.5 459 Q 152 456.5 150.5 460 L 149 461.5 L 137.5 466 L 135.5 466 L 129 467 Q 130.3 470 126.5 469 L 115 474 L 117 477.5 L 116 480.5 Q 118.8 482.2 118 487.5 L 121.5 491 L 135 499.5 Q 132.3 501.2 136.5 503 L 140.5 504 L 140.5 502 Q 173.1 514.4 197.5 535 Q 198.8 532.8 200 535.5 Q 198.3 533.9 196.5 537 L 195.5 536 L 153.5 512 L 92.5 483 Q 66.2 469.3 47 448.5 L 36 433.5 L 38 434.5 Q 44.9 447.1 55.5 456 Q 66.3 466.9 81 473 L 81.5 475 Q 84.5 473.5 81.5 472 L 58 456 L 39 430.5 L 35 422.5 L 34 415.5 L 29 404.5 L 29 401.5 L 33.5 400 L 38.5 401 L 42 398.5 L 42 391.5 Q 45 392.5 44 387.5 Q 42.3 381.8 35 383 Q 38 380.5 37 374 L 31.5 372 L 27 373 L 25.5 377 L 22 379 L 22 383.5 L 23 386 Q 25.7 384.9 25 387.5 Q 27.9 391.4 27 398 Q 23 396.6 25 403.5 L 26 407.5 L 25 407.5 L 18 372.5 L 14 332.5 L 13 331.5 L 13 321.5 L 12 320.5 L 11 241.5 L 14.5 237 Z M 15 238 L 13 241 L 16 239 L 19 240 L 21 240 Q 20 237 15 238 Z M 13 311 L 15 338 L 17 342 L 16 346 L 17 348 L 18 348 L 16 314 L 15 313 Q 16 310 13 311 Z M 38 313 L 37 325 L 39 325 L 38 313 Z M 40 332 Q 37 338 41 337 L 40 332 Z M 19 351 L 17 355 L 18 358 L 19 358 L 19 351 Z M 96 425 L 100 429 L 100 428 L 96 425 Z " /><path fill="rgb(211,181,109)" stroke="rgb(211,181,109)" stroke-width="0" opacity="0.996078431372549" d="M 532.5 237 Q 537.3 236.3 538 239.5 L 540 247.5 L 540 255.5 L 538.5 262 L 538 244.5 L 536.5 243 L 536 260.5 L 538 263.5 L 538 297.5 L 537 298.5 L 536 324.5 L 535 325.5 L 532 356.5 L 523 409.5 Q 512.2 443.2 487.5 463 L 452.5 486 L 397.5 513 L 363.5 532 Q 339.9 545.9 322 565.5 L 307.5 584 L 308 582.5 L 312 575.5 L 328.5 557 L 335 551.5 L 343.5 542 L 370.5 523 L 406.5 503 L 422.5 496 L 456 474.5 L 457.5 472 L 462.5 470 L 467.5 470 L 476.5 465 L 498 446.5 L 509.5 432 L 511 431.5 L 510 429.5 L 511 429.5 L 512.5 431 L 519 417.5 L 519 415.5 L 520 405.5 L 522 400.5 L 522 392.5 L 524 385.5 L 526 364 L 517.5 363 L 516 361.5 Q 517.9 356.1 514.5 357 L 509 356 L 508.5 354 L 503 370.5 L 489 398.5 L 484 403.5 L 480 412 L 464.5 424 L 462.5 424 L 463 422.5 L 465 418 L 451.5 427 L 452.5 425 Q 466.6 416.6 477 404.5 Q 491.9 387.9 500 364.5 L 512 304.5 L 514 283.5 L 517.5 271 L 518 277.5 Q 515.3 279.3 517 285.5 L 518 285.5 L 523 258.5 L 531 242.5 L 529.5 242 L 525 245.5 L 525 243.5 L 530.5 238 L 532.5 237 Z M 533 238 L 532 240 L 537 240 L 533 238 Z M 489 390 L 486 395 L 489 393 L 489 390 Z M 484 398 L 476 407 L 477 408 L 484 400 L 484 398 Z " /><path fill="rgb(211,181,109)" stroke="rgb(211,181,109)" stroke-width="0" opacity="0.996078431372549" d="M 27.5 247 L 29 251.5 L 28 251.5 L 27.5 247 Z " /><path fill="rgb(211,181,109)" stroke="rgb(211,181,109)" stroke-width="0" opacity="0.996078431372549" d="M 230.5 251 L 234 253.5 L 232.5 253 L 230.5 251 Z " /><path fill="rgb(211,181,109)" stroke="rgb(211,181,109)" stroke-width="0" opacity="0.996078431372549" d="M 171.5 254 Q 188.2 273.8 215 283.5 L 214.5 286 L 213 285.5 L 214.5 288 L 220 291.5 L 218.5 291 L 195 277.5 L 196.5 278 L 204.5 281 L 202.5 278 L 188.5 271 L 191.5 275 L 194 276.5 L 192.5 276 Q 180.4 269.6 173 258.5 L 171.5 254 Z M 205 281 L 205 283 L 207 282 L 207 284 L 208 284 Q 209 279 205 281 Z M 210 282 L 209 285 L 212 286 L 213 283 L 211 284 L 210 282 Z " /><path fill="rgb(211,181,109)" stroke="rgb(211,181,109)" stroke-width="0" opacity="0.996078431372549" d="M 235.5 254 L 244 261.5 L 238.5 257 L 235.5 254 Z " /><path fill="rgb(211,181,109)" stroke="rgb(211,181,109)" stroke-width="0" opacity="0.996078431372549" d="M 51.5 260 L 57 263.5 L 56 268.5 L 60.5 279 L 61.5 271 Q 64.8 275.8 64 284.5 Q 60 286.5 62 294.5 L 63.5 303 L 64.5 297 L 67 303.5 L 68 321.5 L 71 330.5 L 72 348.5 L 74 354.5 L 80 395.5 L 77.5 397 L 71 391.5 Q 59.1 372.9 53 348.5 L 47 313.5 L 47 303.5 L 45 292.5 L 45 270 Q 48.3 271.3 47 266.5 L 46 264.5 L 48.5 261 L 51.5 260 Z M 47 277 L 47 292 L 48 289 Q 49 281 47 277 Z M 50 311 L 50 325 L 51 325 Q 52 316 50 311 Z M 67 377 L 65 379 L 67 379 L 66 381 L 68 381 L 67 383 L 69 383 Q 70 378 67 377 Z M 75 377 L 73 379 L 74 389 L 71 390 L 75 394 L 78 393 Q 78 383 75 377 Z " /><path fill="rgb(211,181,109)" stroke="rgb(211,181,109)" stroke-width="0" opacity="0.996078431372549" d="M 495.5 261 L 502 262 Q 501.1 272.6 504 280.5 L 503 281.5 L 503 292.5 L 500 309.5 L 500 317.5 L 492 356.5 L 486 374.5 L 480 386.5 L 471.5 397 L 469 396.5 L 469 383.5 L 473 362.5 L 474 349.5 L 477 337.5 L 477 329.5 Q 480.6 318.6 481 304.5 L 484.5 294 L 485 303.5 L 484 308.5 L 485 308.5 L 490 278.5 L 494 267 Q 491.3 265.9 492 268.5 L 489 270.5 Q 489.9 263.4 495.5 261 Z M 482 346 L 480 348 L 479 355 L 486 357 Q 490 358 488 352 Q 486 353 485 350 Q 481 351 483 346 L 482 346 Z M 479 362 L 475 372 L 476 379 Q 472 380 474 375 L 471 377 L 471 386 L 474 386 L 473 392 Q 471 393 474 394 L 480 385 L 478 379 Q 477 375 481 376 Q 486 372 485 363 L 479 362 Z " /><path fill="rgb(211,181,109)" stroke="rgb(211,181,109)" stroke-width="0" opacity="0.996078431372549" d="M 245.5 262 L 249 266.5 L 247 265.5 L 245.5 262 Z " /><path fill="rgb(211,181,109)" stroke="rgb(211,181,109)" stroke-width="0" opacity="0.996078431372549" d="M 254.5 277 L 261 298.5 L 260 298.5 L 254 279.5 L 254.5 277 Z " /><path fill="rgb(211,181,109)" stroke="rgb(211,181,109)" stroke-width="0" opacity="0.996078431372549" d="M 162.5 284 Q 166.8 304.7 176 320.5 L 197.5 349 L 217.5 365 L 254.5 388 L 267 399.5 Q 274.9 408.1 278.5 421 L 279.5 403 L 281 415.5 L 280 421.5 L 281 425.5 L 278.5 430 L 277 430.5 L 277 454.5 L 276 454.5 L 276 429.5 L 269 418.5 L 272 420.5 L 274 423.5 L 277 425.5 L 278 421.5 L 272 413.5 L 270 407.5 Q 272.2 406.3 269.5 405 Q 266.9 405.8 268 402.5 L 262 398 L 261.5 400 L 257.5 395 L 260.5 397 Q 263.5 395.5 260.5 394 L 242.5 381 L 237 379 Q 235.9 381.7 238.5 381 L 251 391.5 L 249.5 393 L 214.5 373 L 216.5 376 L 226 382.5 L 224.5 382 Q 198.9 367.1 180 345.5 L 195.5 360 L 210.5 371 L 205.5 365 L 186 347.5 L 183 342 Q 180.3 343.1 181 340.5 L 178 334.5 Q 180.3 333.2 177.5 332 L 171 326.5 L 167 317 Q 171.1 318.7 170 314.5 Q 168.3 305.2 163 299.5 L 162 290.5 L 163 288.5 L 162.5 284 Z " /><path fill="rgb(211,181,109)" stroke="rgb(211,181,109)" stroke-width="0" opacity="0.996078431372549" d="M 221.5 286 L 233 291.5 L 231.5 292 L 222.5 288 L 221.5 286 Z " /><path fill="rgb(211,181,109)" stroke="rgb(211,181,109)" stroke-width="0" opacity="0.996078431372549" d="M 81.5 291 L 90 295.5 L 91 297.5 L 88.5 296 Q 85.9 295.2 87 298.5 L 90 304.5 L 93.5 324 L 95.5 320 L 98 328.5 L 99.5 355 L 101.5 352 L 104 364 L 93 363.5 L 103 363 L 101.5 360 L 97.5 357 L 89.5 361 L 86.5 354 L 86 359.5 L 90 365.5 L 87 366 L 80 332.5 L 77 297.5 L 81.5 291 Z M 82 325 L 82 338 L 83 338 Q 85 329 82 325 Z " /><path fill="rgb(211,181,109)" stroke="rgb(211,181,109)" stroke-width="0" opacity="0.996078431372549" d="M 462.5 291 Q 468.8 289.8 470 293.5 L 471 302.5 L 464 355.5 Q 461.3 358.8 462 365.5 L 460.5 367 L 460 364.5 L 461 354.5 L 459.5 355 L 452.5 354 L 451 358 L 448 358 Q 449.3 353.9 446 355 L 445 359.5 L 445 361.5 Q 444.2 364.1 447.5 363 L 447.5 364 L 444 362.5 L 445 354.5 L 447.5 351 L 449.5 356 L 451 342.5 L 449 342.5 L 450 332.5 L 454 325.5 L 461 296.5 L 457 298.5 L 462.5 291 Z M 469 303 L 468 312 L 469 312 L 469 303 Z M 452 336 L 451 342 L 452 342 L 452 336 Z " /><path fill="rgb(211,181,109)" stroke="rgb(211,181,109)" stroke-width="0" opacity="0.996078431372549" d="M 154.5 296 L 162 315.5 L 161 315.5 Q 155.5 307.1 154.5 296 Z " /><path fill="rgb(211,181,109)" stroke="rgb(211,181,109)" stroke-width="0" opacity="0.996078431372549" d="M 179.5 303 L 189 310.5 L 187.5 312 L 179.5 303 Z " /><path fill="rgb(211,181,109)" stroke="rgb(211,181,109)" stroke-width="0" opacity="0.996078431372549" d="M 382.5 303 L 384 303.5 L 367.5 318 L 344.5 329 L 337 334 L 334.5 338 L 333 337.5 L 338 326 L 346.5 322 L 349.5 323 L 349.5 322 L 348 321.5 L 349.5 321 L 352.5 322 L 352.5 321 L 351 320.5 L 352.5 320 L 354.5 321 L 354.5 319 L 374.5 310 L 382.5 303 Z " /><path fill="rgb(211,181,109)" stroke="rgb(211,181,109)" stroke-width="0" opacity="0.996078431372549" d="M 245.5 305 L 261 317.5 L 256.5 314 L 247.5 308 L 245.5 305 Z " /><path fill="rgb(211,181,109)" stroke="rgb(211,181,109)" stroke-width="0" opacity="0.996078431372549" d="M 190.5 311 L 202 319.5 L 200.5 319 L 199 319.5 L 200.5 322 L 197.5 317 L 196 317.5 L 196.5 319 L 189 312.5 L 190.5 311 Z " /><path fill="rgb(211,181,109)" stroke="rgb(211,181,109)" stroke-width="0" opacity="0.996078431372549" d="M 163.5 319 L 171 331.5 L 169 330.5 L 163.5 319 Z " /><path fill="rgb(211,181,109)" stroke="rgb(211,181,109)" stroke-width="0" opacity="0.996078431372549" d="M 261.5 319 L 268 326.5 L 267 326.5 L 261.5 319 Z " /><path fill="rgb(211,181,109)" stroke="rgb(211,181,109)" stroke-width="0" opacity="0.996078431372549" d="M 203.5 320 L 238 337.5 L 236.5 338 L 232.5 336 L 230.5 336 L 205.5 323 L 206.5 325 L 212 328.5 L 210.5 328 L 202 322.5 L 203.5 323 L 205 322.5 L 203.5 320 Z " /><path fill="rgb(211,181,109)" stroke="rgb(211,181,109)" stroke-width="0" opacity="0.996078431372549" d="M 213.5 329 L 229 338.5 L 227.5 338 L 214.5 331 L 213.5 329 Z " /><path fill="rgb(211,181,109)" stroke="rgb(211,181,109)" stroke-width="0" opacity="0.996078431372549" d="M 173.5 336 L 180 343.5 L 176 340.5 L 173.5 336 Z " /><path fill="rgb(211,181,109)" stroke="rgb(211,181,109)" stroke-width="0" opacity="0.996078431372549" d="M 232.5 340 L 241 345.5 L 239.5 345 Q 233.3 343.6 232.5 340 Z " /><path fill="rgb(211,181,109)" stroke="rgb(211,181,109)" stroke-width="0" opacity="0.996078431372549" d="M 249.5 350 L 268 365.5 L 259.5 358 Q 251.8 355.1 249.5 350 Z " /><path fill="rgb(211,181,109)" stroke="rgb(211,181,109)" stroke-width="0" opacity="0.996078431372549" d="M 268.5 367 L 277 374 L 276.5 381 L 276 375.5 L 268.5 367 Z " /><path fill="rgb(211,181,109)" stroke="rgb(211,181,109)" stroke-width="0" opacity="0.996078431372549" d="M 94.5 370 L 98.5 370 L 104.5 373 L 127.5 388 L 150 398.5 L 148.5 399 L 138.5 394 L 141.5 398 L 160.5 407 L 168.5 409 L 168.5 408 L 153 400.5 L 154.5 400 L 192 419.5 L 190.5 419 L 177.5 413 L 178.5 415 L 187.5 422 L 208.5 432 L 206.5 428 L 232 451.5 L 244 470.5 L 243 472.5 L 246 473.5 L 250 482.5 L 249 482.5 L 246.5 477 L 246 479.5 L 251.5 491 L 252.5 489 L 259 509.5 L 258 509.5 L 257.5 508 L 257 511.5 L 259.5 523 L 260.5 517 Q 262.9 523.6 262 533.5 L 261 533.5 L 260.5 532 L 259.5 534 L 258 521.5 L 253 504.5 L 254 500.5 L 251.5 494 L 250.5 496 L 246 482.5 L 235.5 464 L 234 462.5 L 223 448 L 228.5 451 L 229 449.5 L 218 439.5 L 219 445 L 210.5 446 L 208.5 446 L 197.5 450 L 189.5 451 L 180.5 455 L 172.5 450 L 176 454.5 L 178 459 L 182 460.5 L 184 466.5 Q 182.8 469.3 181.5 467 L 180 465.5 L 179 462.5 Q 174.2 451.8 165.5 445 L 157.5 438 L 107 407.5 L 109 406.5 L 99.5 399 L 99 400.5 L 99.5 402 L 90 392.5 Q 86.4 389.1 87 381.5 L 89 374.5 L 92.5 371 L 94.5 370 Z M 96 371 L 91 374 Q 92 376 94 374 L 101 374 L 101 372 L 96 371 Z M 136 422 L 136 424 L 143 428 Q 146 429 145 427 Q 142 422 136 422 Z M 210 432 L 212 435 L 213 435 L 210 432 Z M 215 436 L 217 439 L 218 439 L 215 436 Z " /><path fill="rgb(211,181,109)" stroke="rgb(211,181,109)" stroke-width="0" opacity="0.996078431372549" d="M 451.5 370 Q 457.9 370.1 460 374.5 L 462 384.5 L 459 393.5 L 449.5 405 L 434.5 416 L 413.5 427 L 414 425.5 L 412.5 424 L 407 427.5 L 410.5 428 L 412 427.5 L 391.5 440 L 378 453.5 L 369 465.5 L 370.5 465 L 373.5 464 L 373.5 465 L 372 466.5 Q 370.3 464.9 368.5 468 L 366 465.5 L 369.5 460 L 371.5 460 L 376 455.5 L 374.5 454 L 372 455 L 376 447.5 Q 369.3 444.3 357.5 446 L 355.5 447 L 352.5 446 L 341.5 448 L 336.5 447 L 323 459.5 L 314.5 472 L 315 470.5 L 321 460.5 L 318 462.5 L 306.5 481 L 307 479.5 L 306.5 477 L 302 486.5 L 304 485.5 L 305.5 482 L 306 483.5 L 298.5 501 L 298 498.5 L 302 487.5 L 301 487.5 L 296.5 499 L 296 497.5 Q 301.7 478.7 312.5 465 L 312 466.5 L 311 469.5 L 313 468.5 L 326 450.5 L 320 455.5 L 315.5 461 L 317 458.5 L 337.5 436 L 350.5 426 L 348.5 429 Q 345.9 428.3 347 431 Q 356.9 430.2 361 422.5 L 359.5 421 L 352.5 426 L 354.5 423 L 380.5 409 L 380.5 410 L 379 411.5 L 380.5 411 L 416.5 397 Q 418.5 401 424.5 401 L 427.5 400 L 429 400.5 Q 430.5 393.5 426.5 392 Q 423.2 393.1 424 390.5 L 425.5 388 L 414.5 393 L 415.5 391 Q 431.2 384.7 442.5 374 L 451.5 370 Z M 452 371 L 449 373 L 455 375 L 457 386 L 460 385 L 458 374 L 452 371 Z M 420 402 L 419 403 Q 412 401 414 407 L 423 409 L 425 409 L 430 409 L 436 406 L 429 402 L 427 403 L 420 402 Z M 372 417 L 370 418 L 369 420 L 373 418 L 372 417 Z M 348 433 L 344 436 L 339 442 L 349 434 L 348 433 Z M 326 454 L 323 458 L 326 456 L 326 454 Z " /><path fill="rgb(211,181,109)" stroke="rgb(211,181,109)" stroke-width="0" opacity="0.996078431372549" d="M 227.5 383 Q 246.5 393 261 407.5 L 258.5 406 Q 245.3 393.7 228.5 385 L 227.5 383 Z " /><path fill="rgb(211,181,109)" stroke="rgb(211,181,109)" stroke-width="0" opacity="0.996078431372549" d="M 278.5 392 L 279 397.5 L 278 397.5 L 278.5 392 Z " /><path fill="rgb(211,181,109)" stroke="rgb(211,181,109)" stroke-width="0" opacity="0.996078431372549" d="M 412.5 393 L 411.5 395 L 396.5 402 L 396.5 401 L 412.5 393 Z " /><path fill="rgb(211,181,109)" stroke="rgb(211,181,109)" stroke-width="0" opacity="0.996078431372549" d="M 65.5 397 L 75.5 408 L 88 418.5 L 85.5 417 L 71 404.5 L 65.5 397 Z " /><path fill="rgb(211,181,109)" stroke="rgb(211,181,109)" stroke-width="0" opacity="0.996078431372549" d="M 393.5 402 L 395 402.5 L 382.5 409 L 383.5 407 L 393.5 402 Z " /><path fill="rgb(211,181,109)" stroke="rgb(211,181,109)" stroke-width="0" opacity="0.996078431372549" d="M 28.5 415 L 35 429.5 L 33 428.5 L 28.5 415 Z " /><path fill="rgb(211,181,109)" stroke="rgb(211,181,109)" stroke-width="0" opacity="0.996078431372549" d="M 195.5 421 L 205 427.5 L 203.5 427 Q 196.6 425 195.5 421 Z " /><path fill="rgb(211,181,109)" stroke="rgb(211,181,109)" stroke-width="0" opacity="0.996078431372549" d="M 446.5 429 L 445.5 431 L 432.5 438 L 432.5 437 L 446.5 429 Z " /><path fill="rgb(211,181,109)" stroke="rgb(211,181,109)" stroke-width="0" opacity="0.996078431372549" d="M 430.5 438 L 429.5 440 L 399.5 454 L 399.5 453 L 430.5 438 Z " /><path fill="rgb(211,181,109)" stroke="rgb(211,181,109)" stroke-width="0" opacity="0.996078431372549" d="M 160.5 456 L 166 458.5 L 164.5 459 L 160.5 456 Z " /><path fill="rgb(211,181,109)" stroke="rgb(211,181,109)" stroke-width="0" opacity="0.996078431372549" d="M 167.5 459 L 175 462.5 L 173.5 463 L 167.5 460 L 167.5 459 Z " /><path fill="rgb(211,181,109)" stroke="rgb(211,181,109)" stroke-width="0" opacity="0.996078431372549" d="M 384.5 459 L 386 459.5 L 378.5 463 L 378.5 462 L 384.5 459 Z " /><path fill="rgb(211,181,109)" stroke="rgb(211,181,109)" stroke-width="0" opacity="0.996078431372549" d="M 275.5 467 L 277 471 Q 280 470 279 473 L 276 471.5 L 275.5 467 Z " /><path fill="rgb(211,181,109)" stroke="rgb(211,181,109)" stroke-width="0" opacity="0.996078431372549" d="M 313.5 473 L 313 474.5 L 306.5 487 L 306 485.5 L 313.5 473 Z " /><path fill="rgb(211,181,109)" stroke="rgb(211,181,109)" stroke-width="0" opacity="0.996078431372549" d="M 304.5 490 L 305 491.5 L 301.5 499 L 301 497.5 L 304.5 490 Z " /><path fill="rgb(211,181,109)" stroke="rgb(211,181,109)" stroke-width="0" opacity="0.996078431372549" d="M 300.5 500 L 301 501.5 L 294 522.5 L 294 529.5 L 291.5 541 L 289.5 533 L 288.5 535 L 288 531.5 L 290 527.5 Q 289.6 515.1 293.5 507 L 294 509.5 Q 291.1 513.1 292 520.5 L 293 520.5 L 297.5 502 L 298.5 504 L 300.5 500 Z " /><path fill="rgb(211,181,109)" stroke="rgb(211,181,109)" stroke-width="0" opacity="0.996078431372549" d="M 262.5 535 L 262 536.5 L 265 544.5 L 265 552.5 L 266 553.5 L 266 597.5 L 265 597.5 L 263 583.5 Q 266.8 571.8 265 554.5 L 263.5 547 L 262.5 558 L 260 537.5 L 262.5 535 Z " /><path fill="rgb(211,181,109)" stroke="rgb(211,181,109)" stroke-width="0" opacity="0.996078431372549" d="M 198.5 537 L 206.5 543 L 207 541.5 L 206.5 540 L 220 551.5 Q 225.2 562.7 235 569.5 L 215.5 551 L 201.5 541 L 198.5 537 Z " /><path fill="rgb(211,181,109)" stroke="rgb(211,181,109)" stroke-width="0" opacity="0.996078431372549" d="M 287.5 538 L 289 562.5 L 288 563.5 L 288 573.5 L 286 579.5 L 285.5 591 L 285 565.5 L 286 564.5 L 286 548.5 L 287.5 538 Z " /><path fill="rgb(211,181,109)" stroke="rgb(211,181,109)" stroke-width="0" opacity="0.996078431372549" d="M 236.5 572 L 242 578.5 L 239 576.5 L 236.5 572 Z " /><path fill="rgb(211,181,109)" stroke="rgb(211,181,109)" stroke-width="0" opacity="0.996078431372549" d="M 244.5 583 L 250 590.5 L 247 588.5 L 244.5 583 Z " /><path fill="rgb(211,181,109)" stroke="rgb(211,181,109)" stroke-width="0" opacity="0.996078431372549" d="M 306.5 585 L 306 586.5 L 304.5 589 L 305 587.5 L 306.5 585 Z " /><path fill="rgb(211,181,109)" stroke="rgb(211,181,109)" stroke-width="0" opacity="0.996078431372549" d="M 303.5 590 L 302 592.5 L 298.5 599 L 299 597.5 L 303.5 590 Z " /><path fill="rgb(211,181,109)" stroke="rgb(211,181,109)" stroke-width="0" opacity="0.996078431372549" d="M 285.5 592 L 286 601.5 L 285 601.5 L 285.5 592 Z " /><path fill="rgb(211,181,109)" stroke="rgb(211,181,109)" stroke-width="0" opacity="0.996078431372549" d="M 254.5 599 L 258 604.5 L 256 603.5 L 254.5 599 Z " /><path fill="rgb(211,181,109)" stroke="rgb(211,181,109)" stroke-width="0" opacity="0.996078431372549" d="M 265.5 599 L 266 604.5 L 265 604.5 L 265.5 599 Z " /><path fill="rgb(211,181,109)" stroke="rgb(211,181,109)" stroke-width="0" opacity="0.996078431372549" d="M 285.5 605 L 286 615.5 L 285 615.5 L 285.5 605 Z " /><path fill="rgb(211,181,109)" stroke="rgb(211,181,109)" stroke-width="0" opacity="0.996078431372549" d="M 294.5 606 L 294 607.5 L 290.5 615 L 290 613.5 L 294.5 606 Z " /><path fill="rgb(186,153,79)" stroke="rgb(186,153,79)" stroke-width="0" opacity="0.996078431372549" d="M 275.5 11 L 290.5 11 L 305 13.5 L 299.5 14 L 298.5 13 L 283.5 12 L 282.5 13 L 268.5 13 L 268.5 12 L 275.5 11 Z " /><path fill="rgb(186,153,79)" stroke="rgb(186,153,79)" stroke-width="0" opacity="0.996078431372549" d="M 279.5 19 L 292 19.5 L 280.5 20 L 279.5 21 L 264.5 21 L 264.5 20 L 278.5 20 L 279.5 19 Z " /><path fill="rgb(186,153,79)" stroke="rgb(186,153,79)" stroke-width="0" opacity="0.996078431372549" d="M 294.5 20 L 308 21.5 L 302.5 22 Q 300.8 19.3 294.5 21 L 294.5 20 Z " /><path fill="rgb(186,153,79)" stroke="rgb(186,153,79)" stroke-width="0" opacity="0.996078431372549" d="M 258.5 21 L 263 21.5 L 258 22.5 L 262 23.5 L 255.5 24 L 252.5 23 L 252.5 24 L 254 24.5 Q 209.5 31 180.5 53 L 180 51.5 L 192.5 43 L 220.5 30 L 258.5 21 Z " /><path fill="rgb(186,153,79)" stroke="rgb(186,153,79)" stroke-width="0" opacity="0.996078431372549" d="M 267.5 22 L 277 22.5 L 267.5 23 L 267.5 22 Z " /><path fill="rgb(186,153,79)" stroke="rgb(186,153,79)" stroke-width="0" opacity="0.996078431372549" d="M 283.5 22 L 295 22.5 L 283.5 23 L 283.5 22 Z " /><path fill="rgb(186,153,79)" stroke="rgb(186,153,79)" stroke-width="0" opacity="0.996078431372549" d="M 309.5 22 L 318 23.5 L 310.5 25 L 310.5 24 L 314 23.5 L 309.5 23 Q 307.8 25.8 301.5 24 L 301.5 23 Q 307.8 24.8 309.5 22 Z " /><path fill="rgb(186,153,79)" stroke="rgb(186,153,79)" stroke-width="0" opacity="0.996078431372549" d="M 319.5 24 L 322 24.5 L 315.5 26 L 315.5 25 L 319.5 24 Z " /><path fill="rgb(186,153,79)" stroke="rgb(186,153,79)" stroke-width="0" opacity="0.996078431372549" d="M 327.5 26 L 353.5 35 L 375 47.5 L 373.5 47 Q 353.9 34.9 329 29 Q 330.1 26.3 327.5 27 L 324.5 28 L 324.5 27 L 327.5 26 Z " /><path fill="rgb(186,153,79)" stroke="rgb(186,153,79)" stroke-width="0" opacity="0.996078431372549" d="M 364.5 32 L 373 36.5 L 371.5 36 Q 365.8 35.4 364.5 32 Z " /><path fill="rgb(186,153,79)" stroke="rgb(186,153,79)" stroke-width="0" opacity="0.996078431372549" d="M 192.5 34 L 191.5 36 L 189.5 37 L 190.5 35 L 192.5 34 Z " /><path fill="rgb(186,153,79)" stroke="rgb(186,153,79)" stroke-width="0" opacity="0.996078431372549" d="M 181.5 40 L 183 40.5 L 165.5 52 L 142.5 73 L 154.5 60 L 181.5 40 Z " /><path fill="rgb(186,153,79)" stroke="rgb(186,153,79)" stroke-width="0" opacity="0.996078431372549" d="M 419.5 74 L 434 92.5 L 432 91.5 Q 432.7 88.9 430 90 L 430 87.5 Q 421.2 82.5 419.5 74 Z " /><path fill="rgb(186,153,79)" stroke="rgb(186,153,79)" stroke-width="0" opacity="0.996078431372549" d="M 120.5 111 L 122 111.5 L 110.5 132 L 110 130.5 L 120.5 111 Z " /><path fill="rgb(186,153,79)" stroke="rgb(186,153,79)" stroke-width="0" opacity="0.996078431372549" d="M 439.5 114 L 443 116.5 Q 442.2 119.1 445.5 118 Q 446.8 115.8 448 118.5 L 448.5 120 L 450 119.5 L 449 121.5 L 451 122.5 L 450.5 124 L 452 125.5 L 451.5 127 L 453 127.5 L 452 128.5 Q 455.1 130.2 453.5 132 L 455 132.5 L 455 134.5 L 459 142.5 L 462 155.5 L 462 157.5 L 465 168.5 L 463.5 175 L 459 156.5 L 456 152.5 L 456 150.5 L 456 147.5 L 450 136.5 L 450.5 135 L 449 134.5 L 449.5 133 Q 446.9 133.8 448 130.5 L 447.5 128 L 446 127.5 L 446.5 126 L 445 125.5 L 445 123.5 L 444 120 L 442 119.5 L 442.5 118 L 440 116.5 L 439.5 114 Z " /><path fill="rgb(186,153,79)" stroke="rgb(186,153,79)" stroke-width="0" opacity="0.996078431372549" d="M 213.5 121 Q 238.8 133 260 148 Q 258.9 150.7 261.5 150 L 272.5 159 L 289 168 L 294.5 176 L 297.5 177 L 299 176.5 L 305 189.5 L 321 215.5 L 331 244.5 L 334 267.5 L 334 289.5 L 331 291 L 330 305.5 L 322.5 332 L 322 327.5 L 326 312.5 L 327.5 293 L 328.5 298 L 329 282.5 L 328 278.5 L 329 272.5 L 324 242.5 L 321 236 Q 323.7 237.1 323 234.5 L 320 224.5 L 312.5 211 L 309 209.5 L 307 205.5 L 308 202.5 Q 303.2 191.3 294.5 184 L 293.5 185 L 290 181.5 L 292 181.5 L 289.5 177 L 288 177.5 L 288.5 179 L 282 171.5 L 283 170.5 L 278.5 166 L 277 166.5 L 280.5 171 L 272 162.5 L 273 161.5 L 269.5 158 L 268 158.5 L 270.5 162 L 266 157.5 Q 268.3 156.3 265.5 155 L 264 155.5 L 264.5 157 L 259.5 150 L 255.5 148 L 255.5 150 L 252.5 145 L 250.5 146 L 248.5 142 L 247 142.5 L 247.5 144 L 245.5 140 L 244 140.5 L 244.5 142 L 237 136.5 L 236.5 135 L 235 135.5 Q 237.3 134.3 234.5 133 L 233 133.5 L 233.5 135 L 232.5 132 L 230.5 133 Q 224.8 126.7 215.5 124 L 213.5 121 Z " /><path fill="rgb(186,153,79)" stroke="rgb(186,153,79)" stroke-width="0" opacity="0.996078431372549" d="M 177.5 125 L 177 126.5 L 164.5 179 L 163 174.5 L 174 132.5 L 177.5 125 Z " /><path fill="rgb(186,153,79)" stroke="rgb(186,153,79)" stroke-width="0" opacity="0.996078431372549" d="M 109.5 133 L 110 134.5 L 106.5 141 L 106 137.5 L 109.5 133 Z " /><path fill="rgb(186,153,79)" stroke="rgb(186,153,79)" stroke-width="0" opacity="0.996078431372549" d="M 99 144 Q 101.7 142.9 101 145.5 L 98.5 150 L 98 148.5 L 99 144 Z " /><path fill="rgb(186,153,79)" stroke="rgb(186,153,79)" stroke-width="0" opacity="0.996078431372549" d="M 206.5 147 L 210 154.5 L 209 154.5 L 206.5 147 Z " /><path fill="rgb(186,153,79)" stroke="rgb(186,153,79)" stroke-width="0" opacity="0.996078431372549" d="M 162.5 178 L 164 183.5 L 163 183.5 L 162.5 178 Z " /><path fill="rgb(186,153,79)" stroke="rgb(186,153,79)" stroke-width="0" opacity="0.996078431372549" d="M 161.5 182 L 163 189.5 L 162 189.5 L 161.5 188 L 161 191.5 L 162 194.5 L 161 194.5 L 160.5 192 L 160 196.5 L 161 200.5 L 160 200.5 L 159.5 198 L 159 202.5 L 160 206.5 L 159 206.5 L 158.5 205 L 158 207.5 L 159 214.5 L 158 214.5 L 157.5 211 L 154 230.5 L 154 242.5 L 155 243.5 L 155.5 255 L 156.5 246 L 158 275.5 L 161 278.5 L 163 289.5 L 162 295.5 L 168 307.5 L 170 317 Q 166.2 315.5 167 318.5 Q 169.8 327.2 176.5 332 L 179 333.5 L 178 335.5 L 181 342 Q 183.7 340.9 183 343.5 L 199.5 361 L 214.5 373 L 242.5 390 L 251 393 L 244.5 385 L 237 381 Q 235.9 378.3 238.5 379 L 262 395.5 Q 259.8 396.8 262.5 398 L 268 402.5 Q 266.9 405.8 269.5 405 Q 272.2 406.3 270 407.5 L 272 413.5 L 278 422.5 L 276.5 426 L 274 422 Q 271.3 423.1 272 420.5 L 256.5 402 L 255.5 403 L 250.5 398 L 244 393.5 L 243.5 392 Q 242 394.5 240.5 391 Q 205.6 372.4 180 344.5 L 183 345.5 L 179.5 341 Q 178.2 343.3 177 340.5 L 179 340.5 L 171.5 330 L 170 330.5 L 170.5 329 L 168 327.5 L 169 324.5 L 167 324.5 L 162 315.5 L 162.5 314 L 161 313.5 L 161.5 312 L 160 310.5 L 160.5 309 L 159 307.5 L 158 305.5 L 158.5 304 Q 155.9 304.8 157 301.5 L 151 284.5 L 148 264.5 L 150 260.5 L 150 230.5 L 153 206 L 155.5 207 L 161.5 182 Z " /><path fill="rgb(186,153,79)" stroke="rgb(186,153,79)" stroke-width="0" opacity="0.996078431372549" d="M 313.5 197 L 319 206.5 L 317 205.5 L 313.5 197 Z " /><path fill="rgb(186,153,79)" stroke="rgb(186,153,79)" stroke-width="0" opacity="0.996078431372549" d="M 230.5 200 L 235 208.5 L 233.5 208 Q 230.5 207.1 232 211.5 L 239 230.5 L 238 230.5 L 229 208 L 226 206.5 L 225 204.5 L 226.5 205 L 230 205 L 230.5 200 Z " /><path fill="rgb(186,153,79)" stroke="rgb(186,153,79)" stroke-width="0" opacity="0.996078431372549" d="M 92.5 203 L 93 209.5 L 92 209.5 L 92.5 203 Z " /><path fill="rgb(186,153,79)" stroke="rgb(186,153,79)" stroke-width="0" opacity="0.996078431372549" d="M 237.5 207 L 238 209.5 L 237 211.5 L 238 217.5 L 237 217.5 L 236 210.5 L 237.5 207 Z " /><path fill="rgb(186,153,79)" stroke="rgb(186,153,79)" stroke-width="0" opacity="0.996078431372549" d="M 149.5 210 L 150 214.5 L 148.5 217 L 148 213.5 L 149.5 210 Z " /><path fill="rgb(186,153,79)" stroke="rgb(186,153,79)" stroke-width="0" opacity="0.996078431372549" d="M 362.5 217 L 361.5 219 L 352.5 224 L 353.5 222 L 362.5 217 Z " /><path fill="rgb(186,153,79)" stroke="rgb(186,153,79)" stroke-width="0" opacity="0.996078431372549" d="M 184.5 219 L 195.5 229 L 222 245.5 L 220.5 245 Q 199.2 236.8 185 221.5 L 184.5 219 Z " /><path fill="rgb(186,153,79)" stroke="rgb(186,153,79)" stroke-width="0" opacity="0.996078431372549" d="M 389.5 223 L 388 225.5 L 383.5 232 L 385 229.5 L 389.5 223 Z " /><path fill="rgb(186,153,79)" stroke="rgb(186,153,79)" stroke-width="0" opacity="0.996078431372549" d="M 240.5 224 L 243 227.5 L 250 251.5 L 253.5 257 L 255.5 256 L 256 258.5 L 254 258.5 L 254 262.5 L 264 288.5 L 266 301.5 L 271 311.5 L 269.5 314 L 268 313.5 L 266.5 317 L 263.5 315 L 263 316.5 L 270 322.5 L 273 335.5 L 271.5 339 L 270 337.5 L 268 325.5 L 256.5 313 L 244 305 L 243.5 303 Q 242.3 305.3 241 302.5 L 241.5 301 L 239.5 302 L 239.5 300 L 237.5 301 Q 239.2 299 235.5 297 L 223.5 292 L 223.5 294 L 213 286.5 L 212.5 285 L 210.5 285 Q 207.9 285.8 209 282.5 L 210 282.5 L 210.5 284 L 213 283 L 213.5 285 L 215.5 284 L 241 296 L 241 298 Q 244.7 296.5 244 299.5 L 247 300.5 L 246.5 302 L 248.5 301 L 250.5 304 L 260.5 312 L 262 311.5 L 261 313.5 Q 262.5 316.5 264 313.5 L 265 311.5 L 258 285.5 L 251 266.5 L 251 264.5 L 249.5 262 L 240.5 256 L 244.5 262 L 238.5 256 L 223 246.5 L 225.5 246 Q 239 250 247.5 259 L 248 256.5 L 241 237 L 243 236.5 L 242 233.5 L 240.5 224 Z " /><path fill="rgb(186,153,79)" stroke="rgb(186,153,79)" stroke-width="0" opacity="0.996078431372549" d="M 157.5 228 L 158 235.5 L 157 235.5 L 157.5 228 Z " /><path fill="rgb(186,153,79)" stroke="rgb(186,153,79)" stroke-width="0" opacity="0.996078431372549" d="M 262.5 229 L 263 231.5 L 259.5 243 L 259 239.5 L 262.5 229 Z " /><path fill="rgb(186,153,79)" stroke="rgb(186,153,79)" stroke-width="0" opacity="0.996078431372549" d="M 210.5 235 L 224 241.5 L 221.5 242 L 211.5 237 L 210.5 235 Z " /><path fill="rgb(186,153,79)" stroke="rgb(186,153,79)" stroke-width="0" opacity="0.996078431372549" d="M 379.5 237 L 379 238.5 L 376.5 242 L 377 240.5 L 379.5 237 Z " /><path fill="rgb(186,153,79)" stroke="rgb(186,153,79)" stroke-width="0" opacity="0.996078431372549" d="M 14.5 238 Q 19.8 236.8 21 239.5 L 18.5 240 L 15.5 239 L 13 240.5 L 14.5 238 Z " /><path fill="rgb(186,153,79)" stroke="rgb(186,153,79)" stroke-width="0" opacity="0.996078431372549" d="M 532.5 238 L 537 239.5 L 531.5 240 L 532.5 238 Z " /><path fill="rgb(186,153,79)" stroke="rgb(186,153,79)" stroke-width="0" opacity="0.996078431372549" d="M 406.5 239 L 407 246.5 L 405.5 252 L 405 242.5 L 406.5 239 Z " /><path fill="rgb(186,153,79)" stroke="rgb(186,153,79)" stroke-width="0" opacity="0.996078431372549" d="M 373.5 246 L 372 248.5 L 363.5 262 L 365 259.5 L 373.5 246 Z " /><path fill="rgb(186,153,79)" stroke="rgb(186,153,79)" stroke-width="0" opacity="0.996078431372549" d="M 290.5 256 L 291 257.5 L 289.5 261 L 289 258.5 L 290.5 256 Z " /><path fill="rgb(186,153,79)" stroke="rgb(186,153,79)" stroke-width="0" opacity="0.996078431372549" d="M 409.5 258 L 410 267.5 L 408 275 L 406 274.5 L 406 266.5 L 409.5 258 Z " /><path fill="rgb(186,153,79)" stroke="rgb(186,153,79)" stroke-width="0" opacity="0.996078431372549" d="M 176.5 260 Q 188.9 274.3 208 281 L 207.5 284 L 206.5 282 L 205 282.5 Q 205.8 279.9 202.5 281 Q 185.6 273.6 176.5 260 Z " /><path fill="rgb(186,153,79)" stroke="rgb(186,153,79)" stroke-width="0" opacity="0.996078431372549" d="M 246.5 262 L 250 266.5 L 248 265.5 L 246.5 262 Z " /><path fill="rgb(186,153,79)" stroke="rgb(186,153,79)" stroke-width="0" opacity="0.996078431372549" d="M 362.5 263 L 362 264.5 L 360.5 267 L 361 265.5 L 362.5 263 Z " /><path fill="rgb(186,153,79)" stroke="rgb(186,153,79)" stroke-width="0" opacity="0.996078431372549" d="M 282 275 Q 284.7 273.9 284 276.5 L 278.5 290 Q 275.8 288.8 278 287.5 L 277 285.5 L 282 275 Z " /><path fill="rgb(186,153,79)" stroke="rgb(186,153,79)" stroke-width="0" opacity="0.996078431372549" d="M 46.5 277 Q 48.9 281.1 48 288.5 L 46.5 292 L 46 285.5 L 47 282.5 L 46.5 277 Z " /><path fill="rgb(186,153,79)" stroke="rgb(186,153,79)" stroke-width="0" opacity="0.996078431372549" d="M 351.5 277 L 353 281.5 L 350.5 286 L 350 282.5 L 351.5 277 Z " /><path fill="rgb(186,153,79)" stroke="rgb(186,153,79)" stroke-width="0" opacity="0.996078431372549" d="M 371.5 282 L 373 282.5 L 372.5 285 L 371 284.5 Q 371.8 287.1 368.5 286 L 364.5 288 L 362.5 287 L 360 288 Q 358.9 285.3 361.5 286 L 371.5 282 Z " /><path fill="rgb(186,153,79)" stroke="rgb(186,153,79)" stroke-width="0" opacity="0.996078431372549" d="M 311.5 289 L 312 290.5 L 307 302.5 L 303.5 307 L 304 305.5 L 311.5 289 Z " /><path fill="rgb(186,153,79)" stroke="rgb(186,153,79)" stroke-width="0" opacity="0.996078431372549" d="M 403.5 290 L 404 294.5 L 391.5 317 L 390 316.5 L 395 309.5 L 403.5 290 Z " /><path fill="rgb(186,153,79)" stroke="rgb(186,153,79)" stroke-width="0" opacity="0.996078431372549" d="M 397.5 292 L 398 294.5 L 392.5 306 L 392 304.5 L 397.5 292 Z " /><path fill="rgb(186,153,79)" stroke="rgb(186,153,79)" stroke-width="0" opacity="0.996078431372549" d="M 463.5 292 L 469 293.5 L 467.5 294 L 463.5 293 L 463.5 292 Z " /><path fill="rgb(186,153,79)" stroke="rgb(186,153,79)" stroke-width="0" opacity="0.996078431372549" d="M 332 296 Q 334.7 294.9 334 297.5 L 334 299.5 L 332.5 303 L 332 296 Z " /><path fill="rgb(186,153,79)" stroke="rgb(186,153,79)" stroke-width="0" opacity="0.996078431372549" d="M 187.5 310 L 192 313.5 L 189.5 312 L 187.5 310 Z " /><path fill="rgb(186,153,79)" stroke="rgb(186,153,79)" stroke-width="0" opacity="0.996078431372549" d="M 13 311 Q 15.7 309.9 15 312.5 L 16 313.5 L 18 347.5 L 17 347.5 L 16 345.5 L 17 341.5 L 15 337.5 L 13 311 Z " /><path fill="rgb(186,153,79)" stroke="rgb(186,153,79)" stroke-width="0" opacity="0.996078431372549" d="M 49.5 311 Q 52.1 315.9 51 324.5 L 50 324.5 L 49.5 311 Z " /><path fill="rgb(186,153,79)" stroke="rgb(186,153,79)" stroke-width="0" opacity="0.996078431372549" d="M 388.5 312 L 388 313.5 L 386.5 316 L 387 314.5 L 388.5 312 Z " /><path fill="rgb(186,153,79)" stroke="rgb(186,153,79)" stroke-width="0" opacity="0.996078431372549" d="M 37.5 313 L 39 325 L 37 324.5 L 37.5 313 Z " /><path fill="rgb(186,153,79)" stroke="rgb(186,153,79)" stroke-width="0" opacity="0.996078431372549" d="M 194.5 315 L 205.5 323 L 231.5 337 L 233.5 337 L 238.5 338 L 251 345.5 L 251.5 347 L 253 346.5 Q 252.5 351.5 256.5 352 L 262.5 355 Q 264.2 352.3 266 356.5 L 267.5 359 Q 270.8 357.9 270 360.5 L 275 364 L 273 348.5 Q 274.5 345.5 276 348.5 L 277.5 351 L 281 350 L 282 357.5 L 280.5 362 L 279.5 360 L 278 364 L 282 366.5 L 285.5 375 L 288 375.5 L 288 389.5 L 289 395 L 286 396.5 L 285 412.5 L 287.5 414 L 289 411 L 293 408.5 L 304 386 Q 307.7 384.5 307 387.5 L 305 391.5 L 302 395.5 L 301 401.5 L 294 414.5 L 290.5 425 L 289.5 418 L 285 428.5 L 285 440.5 L 283 445.5 L 283 452.5 L 279 471 Q 276.3 472.1 277 469.5 L 276 468.5 L 276 455.5 L 277 455.5 L 277.5 464 L 281 450.5 L 281 444.5 L 279 442.5 L 277 430 L 280 428.5 L 281 422.5 L 280 416.5 L 281 411.5 L 280 410.5 L 278 387.5 L 279 378 L 277 377.5 L 277 375.5 L 275.5 374 L 268 366.5 L 268.5 365 L 251.5 351 L 201.5 322 L 194.5 315 Z " /><path fill="rgb(186,153,79)" stroke="rgb(186,153,79)" stroke-width="0" opacity="0.996078431372549" d="M 298.5 316 L 298 317.5 L 294.5 326 L 294 324.5 L 298.5 316 Z " /><path fill="rgb(186,153,79)" stroke="rgb(186,153,79)" stroke-width="0" opacity="0.996078431372549" d="M 353.5 320 L 355 320.5 L 346.5 324 L 347.5 322 L 353.5 320 Z " /><path fill="rgb(186,153,79)" stroke="rgb(186,153,79)" stroke-width="0" opacity="0.996078431372549" d="M 81.5 325 Q 84.9 328.6 83 337.5 L 82 337.5 L 81.5 325 Z " /><path fill="rgb(186,153,79)" stroke="rgb(186,153,79)" stroke-width="0" opacity="0.996078431372549" d="M 378.5 327 L 378 328.5 L 378 330.5 L 372.5 336 L 373 334.5 L 378.5 327 Z " /><path fill="rgb(186,153,79)" stroke="rgb(186,153,79)" stroke-width="0" opacity="0.996078431372549" d="M 319.5 340 L 319 341.5 L 317 350 Q 314.3 351.1 315 348.5 L 319.5 340 Z " /><path fill="rgb(186,153,79)" stroke="rgb(186,153,79)" stroke-width="0" opacity="0.996078431372549" d="M 481.5 346 L 483 346 Q 481.1 350.8 484.5 350 Q 486.3 353.1 488 351.5 Q 490.5 358.4 485.5 357 L 479 354.5 L 480 347.5 L 481.5 346 Z " /><path fill="rgb(186,153,79)" stroke="rgb(186,153,79)" stroke-width="0" opacity="0.996078431372549" d="M 18.5 351 L 20 358.5 L 18 357.5 L 17 354.5 L 18.5 351 Z " /><path fill="rgb(186,153,79)" stroke="rgb(186,153,79)" stroke-width="0" opacity="0.996078431372549" d="M 314 351 Q 316.7 349.9 316 352.5 L 313.5 356 L 314 354.5 L 314 351 Z " /><path fill="rgb(186,153,79)" stroke="rgb(186,153,79)" stroke-width="0" opacity="0.996078431372549" d="M 44.5 353 L 46 359.5 L 45 359.5 L 44.5 353 Z " /><path fill="rgb(186,153,79)" stroke="rgb(186,153,79)" stroke-width="0" opacity="0.996078431372549" d="M 86.5 354 L 89.5 361 L 97.5 357 L 103 361.5 L 102.5 363 L 93.5 363 L 89.5 365 Q 84.5 361.8 86.5 354 Z M 99 359 L 95 360 L 94 362 L 97 361 L 99 362 L 100 362 L 99 359 Z " /><path fill="rgb(186,153,79)" stroke="rgb(186,153,79)" stroke-width="0" opacity="0.996078431372549" d="M 452.5 354 L 459.5 355 L 461 354.5 L 460 364.5 L 460.5 366 Q 455.9 360.9 445 363 L 446 360.5 L 445.5 359 L 447 359.5 L 446 355 Q 449.3 353.9 448 358 L 451 358 L 452.5 354 Z M 448 360 Q 447 363 452 362 Q 453 358 448 360 Z " /><path fill="rgb(186,153,79)" stroke="rgb(186,153,79)" stroke-width="0" opacity="0.996078431372549" d="M 508.5 354 L 509 356 L 516 357 Q 514.8 361.6 517.5 363 L 526 364 L 524 385.5 L 522 392.5 L 522 400.5 L 518 416.5 L 518 418.5 L 512.5 431 L 511 431.5 L 511.5 433 L 509.5 432 L 490.5 454 L 471.5 468 Q 468.8 470.8 462.5 470 L 456 473.5 L 454.5 476 L 422.5 496 L 406.5 503 L 370.5 523 L 340 545.5 Q 342.3 546.8 339.5 548 L 338.5 547 L 335 550.5 L 329.5 557 L 327 558.5 Q 311.9 572.9 301.5 592 L 303 587.5 L 306 579.5 L 315 567.5 L 340.5 541 L 347 537 L 348 527.5 L 353 522.5 L 353 519.5 L 352 518.5 L 352 509.5 Q 355.3 504.8 354 495.5 L 353 491.5 L 343.5 480 L 334.5 475 L 314.5 474 L 313 474.5 Q 321.4 458.8 334.5 448 L 340.5 447 L 342.5 448 L 354.5 446 L 356.5 447 L 357.5 446 L 371.5 446 L 376 447.5 L 372 455 L 377.5 452 L 376 454.5 L 371.5 460 L 368 461.5 L 366 465.5 L 368.5 468 Q 370.2 464.9 372 466.5 L 373.5 465 L 377.5 463 L 380 464 L 380.5 462 L 382.5 463 L 382.5 461 L 384.5 462 L 384.5 460 L 387.5 459 L 389.5 460 L 389.5 458 L 391.5 459 L 391.5 457 L 394.5 456 L 396 456.5 L 396.5 455 L 398.5 456 L 398.5 454 L 412.5 448 L 414 448.5 L 414.5 447 L 415 449 L 435.5 440 L 456 426.5 L 455.5 425 L 454 425.5 L 457 424.5 L 460.5 420 L 469.5 414 L 467.5 417 L 465 418.5 L 462 423.5 L 464.5 424 L 480 412 L 484 403.5 L 489 398.5 L 503 370.5 L 508.5 354 Z " /><path fill="rgb(186,153,79)" stroke="rgb(186,153,79)" stroke-width="0" opacity="0.996078431372549" d="M 342.5 358 L 339.5 362 L 328 367.5 L 327.5 369 L 327 366 L 342.5 358 Z " /><path fill="rgb(186,153,79)" stroke="rgb(186,153,79)" stroke-width="0" opacity="0.996078431372549" d="M 478.5 362 L 485 363 Q 485.8 372.1 480.5 376 Q 476.8 374.8 478 378.5 L 480 384.5 L 473.5 394 Q 470.8 392.8 473 391.5 L 474 386 L 471 385.5 L 471 376.5 L 474 375 Q 472.3 380.2 476 379 L 475 371.5 L 478.5 362 Z " /><path fill="rgb(186,153,79)" stroke="rgb(186,153,79)" stroke-width="0" opacity="0.996078431372549" d="M 213.5 363 L 218 366.5 L 215.5 365 L 213.5 363 Z " /><path fill="rgb(186,153,79)" stroke="rgb(186,153,79)" stroke-width="0" opacity="0.996078431372549" d="M 314.5 364 L 315 367.5 L 313 368.5 L 314.5 364 Z " /><path fill="rgb(186,153,79)" stroke="rgb(186,153,79)" stroke-width="0" opacity="0.996078431372549" d="M 309.5 365 L 310 368.5 L 308.5 371 L 307 368.5 L 309.5 365 Z " /><path fill="rgb(186,153,79)" stroke="rgb(186,153,79)" stroke-width="0" opacity="0.996078431372549" d="M 336.5 369 L 335.5 371 L 333.5 372 L 334.5 370 L 336.5 369 Z " /><path fill="rgb(186,153,79)" stroke="rgb(186,153,79)" stroke-width="0" opacity="0.996078431372549" d="M 95.5 371 L 101 372 L 100.5 374 L 93.5 374 Q 92.3 376.3 91 373.5 L 95.5 371 Z " /><path fill="rgb(186,153,79)" stroke="rgb(186,153,79)" stroke-width="0" opacity="0.996078431372549" d="M 306.5 371 L 308 373.5 L 303.5 380 L 304 378.5 L 305.5 373 L 307 373.5 L 306.5 371 Z " /><path fill="rgb(186,153,79)" stroke="rgb(186,153,79)" stroke-width="0" opacity="0.996078431372549" d="M 451.5 371 L 458 373.5 L 460 384.5 L 457 386 L 455 375 L 449 372.5 L 451.5 371 Z " /><path fill="rgb(186,153,79)" stroke="rgb(186,153,79)" stroke-width="0" opacity="0.996078431372549" d="M 31.5 372 L 37 374 Q 38 380.5 35 383 Q 42.3 381.8 44 387.5 Q 45 392.5 42 391.5 L 42 398.5 Q 40.3 401.8 34.5 401 L 30.5 400 L 29 404.5 L 32 409.5 L 34 419.5 L 39 430.5 L 58 456 L 84 474.5 L 81 474.5 L 79.5 473 Q 64.8 465.7 54 454.5 L 36 432.5 L 36.5 431 L 35 430.5 L 37 430 L 36.5 428 L 34.5 429 L 34.5 427 Q 31.9 427.8 33 424.5 L 26 408.5 L 25 398 Q 29 399.4 27 392.5 L 25 386 Q 22.3 387.1 23 384.5 L 22 379 L 25.5 377 L 27 373 L 31.5 372 Z " /><path fill="rgb(186,153,79)" stroke="rgb(186,153,79)" stroke-width="0" opacity="0.996078431372549" d="M 331.5 372 L 330.5 374 L 325.5 376 L 325.5 375 L 331.5 372 Z " /><path fill="rgb(186,153,79)" stroke="rgb(186,153,79)" stroke-width="0" opacity="0.996078431372549" d="M 52.5 377 L 56 383.5 L 53 381.5 L 52.5 377 Z " /><path fill="rgb(186,153,79)" stroke="rgb(186,153,79)" stroke-width="0" opacity="0.996078431372549" d="M 66.5 377 Q 70 378.3 69 383 L 67 382.5 L 67.5 381 L 66 380.5 L 66.5 379 L 65 378.5 L 66.5 377 Z " /><path fill="rgb(186,153,79)" stroke="rgb(186,153,79)" stroke-width="0" opacity="0.996078431372549" d="M 74.5 377 Q 77.9 383.1 78 392.5 L 74.5 394 L 71 389.5 L 74 388.5 L 73 378.5 L 74.5 377 Z " /><path fill="rgb(186,153,79)" stroke="rgb(186,153,79)" stroke-width="0" opacity="0.996078431372549" d="M 299.5 387 L 300 388.5 L 293.5 401 L 294 399.5 L 299.5 387 Z " /><path fill="rgb(186,153,79)" stroke="rgb(186,153,79)" stroke-width="0" opacity="0.996078431372549" d="M 423.5 388 L 426 388.5 L 424 392 Q 427.8 391.3 429 394.5 L 428.5 401 L 425.5 400 L 423.5 401 L 415.5 397 L 384.5 410 L 383 409.5 Q 383.8 412.1 380.5 411 L 379 411.5 L 380.5 410 L 383.5 408 L 385.5 409 L 385.5 407 L 387.5 408 L 387.5 406 L 389.5 407 L 389.5 405 L 423.5 388 Z " /><path fill="rgb(186,153,79)" stroke="rgb(186,153,79)" stroke-width="0" opacity="0.996078431372549" d="M 489.5 389 L 489 390.5 Q 483.4 402.9 473.5 411 L 476 407.5 L 489.5 389 Z " /><path fill="rgb(186,153,79)" stroke="rgb(186,153,79)" stroke-width="0" opacity="0.996078431372549" d="M 61.5 392 L 80.5 414 L 100 427.5 L 99.5 429 Q 79.4 418.1 65 401.5 L 61 394.5 L 61.5 392 Z " /><path fill="rgb(186,153,79)" stroke="rgb(186,153,79)" stroke-width="0" opacity="0.996078431372549" d="M 138.5 394 L 153 400.5 L 152.5 402 L 154.5 401 L 154.5 403 L 156.5 402 L 169 408.5 L 166.5 409 L 141.5 398 L 138.5 394 Z " /><path fill="rgb(186,153,79)" stroke="rgb(186,153,79)" stroke-width="0" opacity="0.996078431372549" d="M 419.5 402 L 426.5 403 L 428.5 402 L 436 405.5 L 429.5 409 L 424.5 409 L 422.5 409 L 414 407 Q 411.8 401 418.5 403 L 419.5 402 Z " /><path fill="rgb(186,153,79)" stroke="rgb(186,153,79)" stroke-width="0" opacity="0.996078431372549" d="M 175.5 412 L 185 416.5 L 187.5 421 L 192.5 423 L 193 421.5 L 192.5 420 Q 213.7 431.8 229 449.5 L 230 451.5 L 226.5 449 L 223 448 L 234 464 L 237 465.5 L 246 483.5 L 245 483.5 L 238 471 L 231.5 470 Q 227.7 473.7 220.5 474 L 218 476.5 L 214.5 480 L 208 489 Q 205.3 487.9 206 490.5 Q 201.1 497.2 192 499 Q 193.5 502.8 190.5 502 L 179 510.5 L 177 518 Q 202.6 533.2 224 553.5 Q 236 563.9 243 578 Q 245.7 576.9 245 579.5 Q 249.1 582.5 249 589 L 251 589.5 L 249.5 590 L 240 575.5 L 213.5 545 L 207.5 541 L 207 542.5 L 208.5 545 L 196 535.5 Q 198.8 533.7 194.5 532 Q 170.4 514.1 140.5 502 L 140.5 504 L 134 500.5 Q 136.8 498.7 132.5 497 L 118 487.5 L 116 478.5 L 117 476 Q 114 477 115 474 Q 119.2 474.7 120.5 471 L 129 469 Q 127.7 465.3 133.5 467 L 136.5 465 L 138.5 465 L 149 461.5 L 150.5 460 Q 152 456.5 153.5 459 Q 158.9 460.9 158 457.5 L 137 447.5 L 139 446.5 L 139.5 448 L 141.5 448 L 169 460.5 L 168.5 462 L 170.5 461 L 171.5 464 L 178.5 466 L 178.5 464 L 180 467 L 182.5 468 L 184 463.5 L 180.5 459 Q 177.2 460.1 178 457.5 L 172 450.5 L 174.5 450 L 181.5 455 L 189.5 451 L 197.5 450 L 209.5 445 L 211.5 446 L 219 445 L 218 439 Q 205.5 428.2 187.5 422 L 175.5 412 Z " /><path fill="rgb(186,153,79)" stroke="rgb(186,153,79)" stroke-width="0" opacity="0.996078431372549" d="M 363.5 419 L 365 419.5 L 361 421 L 354.5 429 L 347 431 Q 345.7 427.7 350.5 429 L 351.5 426 L 351.5 428 L 354 426.5 Q 351.7 425.3 354.5 424 L 356.5 425 L 357.5 422 L 363.5 419 Z " /><path fill="rgb(186,153,79)" stroke="rgb(186,153,79)" stroke-width="0" opacity="0.996078431372549" d="M 126.5 441 L 135.5 446 L 137 445.5 Q 135.8 448.2 134.5 446 L 127.5 443 L 126.5 441 Z " /><path fill="rgb(186,153,79)" stroke="rgb(186,153,79)" stroke-width="0" opacity="0.996078431372549" d="M 325.5 450 L 326 451.5 L 316.5 463 L 315 461.5 L 320 456.5 L 325.5 450 Z " /><path fill="rgb(186,153,79)" stroke="rgb(186,153,79)" stroke-width="0" opacity="0.996078431372549" d="M 237.5 462 L 240 465.5 L 238 464.5 L 237.5 462 Z " /><path fill="rgb(186,153,79)" stroke="rgb(186,153,79)" stroke-width="0" opacity="0.996078431372549" d="M 314.5 463 Q 318.2 465.2 313 467.5 L 302 487.5 L 299 498 L 297 497.5 Q 303.6 478.1 314.5 463 Z " /><path fill="rgb(186,153,79)" stroke="rgb(186,153,79)" stroke-width="0" opacity="0.996078431372549" d="M 242.5 470 L 251 485.5 L 252 490.5 L 251 490.5 L 242.5 470 Z " /><path fill="rgb(186,153,79)" stroke="rgb(186,153,79)" stroke-width="0" opacity="0.996078431372549" d="M 311.5 478 L 311 479.5 L 308.5 484 L 309 482.5 L 311.5 478 Z " /><path fill="rgb(186,153,79)" stroke="rgb(186,153,79)" stroke-width="0" opacity="0.996078431372549" d="M 246.5 485 L 249 491.5 L 248 491.5 L 246.5 485 Z " /><path fill="rgb(186,153,79)" stroke="rgb(186,153,79)" stroke-width="0" opacity="0.996078431372549" d="M 294.5 506 L 296 509.5 L 292.5 521 L 292 514.5 L 293 510 Q 295.7 511.1 295 508.5 L 294.5 506 Z " /><path fill="rgb(186,153,79)" stroke="rgb(186,153,79)" stroke-width="0" opacity="0.996078431372549" d="M 257.5 508 Q 260.9 513.1 260 522.5 L 259 522.5 L 257.5 508 Z " /><path fill="rgb(186,153,79)" stroke="rgb(186,153,79)" stroke-width="0" opacity="0.996078431372549" d="M 256.5 518 L 258 524.5 L 257 524.5 L 256.5 518 Z " /><path fill="rgb(186,153,79)" stroke="rgb(186,153,79)" stroke-width="0" opacity="0.996078431372549" d="M 295.5 519 L 296 521.5 L 294.5 526 L 294 522.5 L 295.5 519 Z " /><path fill="rgb(186,153,79)" stroke="rgb(186,153,79)" stroke-width="0" opacity="0.996078431372549" d="M 293.5 530 L 294 535.5 L 290 550.5 L 289.5 558 L 288 542 Q 291.7 543.4 290 537.5 L 289 537.5 L 288.5 540 L 288 535.5 L 289.5 533 L 291.5 541 L 293.5 530 Z " /><path fill="rgb(186,153,79)" stroke="rgb(186,153,79)" stroke-width="0" opacity="0.996078431372549" d="M 263.5 547 L 265 559.5 L 262 561.5 L 261 553.5 L 262 553.5 L 262.5 558 L 263.5 547 Z " /><path fill="rgb(186,153,79)" stroke="rgb(186,153,79)" stroke-width="0" opacity="0.996078431372549" d="M 288.5 563 L 289 573.5 L 288 574.5 L 287.5 595 L 286.5 591 L 285 591.5 L 286 590.5 L 286 579.5 Q 289.2 573.2 288.5 563 Z " /><path fill="rgb(186,153,79)" stroke="rgb(186,153,79)" stroke-width="0" opacity="0.996078431372549" d="M 264.5 570 L 265 574.5 L 263.5 583 L 263 571.5 L 264.5 570 Z " /><path fill="rgb(186,153,79)" stroke="rgb(186,153,79)" stroke-width="0" opacity="0.996078431372549" d="M 263.5 589 L 265 595.5 L 263.5 598 L 263.5 589 Z " /><path fill="rgb(186,153,79)" stroke="rgb(186,153,79)" stroke-width="0" opacity="0.996078431372549" d="M 254.5 598 L 257 599 L 260 607.5 L 259 607.5 L 254.5 598 Z " /><path fill="rgb(186,153,79)" stroke="rgb(186,153,79)" stroke-width="0" opacity="0.996078431372549" d="M 265.5 605 L 266 615.5 L 265 615.5 L 265.5 605 Z " /><path fill="rgb(186,153,79)" stroke="rgb(186,153,79)" stroke-width="0" opacity="0.996078431372549" d="M 261.5 608 L 264 616.5 L 263 616.5 L 260 609.5 L 261.5 608 Z " /><path fill="rgb(186,153,79)" stroke="rgb(186,153,79)" stroke-width="0" opacity="0.996078431372549" d="M 291.5 608 L 293 608.5 L 291 609.5 L 291.5 611 L 290 611.5 L 290.5 613 L 288.5 614 L 288 612.5 L 291.5 608 Z " /><path fill="rgb(186,153,79)" stroke="rgb(186,153,79)" stroke-width="0" opacity="0.996078431372549" d="M 286.5 615 L 288 619.5 L 286 620 L 286.5 615 Z " /><path fill="rgb(154,122,54)" stroke="rgb(154,122,54)" stroke-width="0" opacity="0.996078431372549" d="M 283.5 12 L 291 12.5 L 283.5 13 L 283.5 12 Z " /><path fill="rgb(154,122,54)" stroke="rgb(154,122,54)" stroke-width="0" opacity="0.996078431372549" d="M 280.5 20 Q 308.8 19.7 329 27.5 L 327.5 28 L 308.5 23 L 267.5 22 L 266.5 23 L 258.5 23 L 258.5 22 L 279.5 21 L 280.5 20 Z " /><path fill="rgb(154,122,54)" stroke="rgb(154,122,54)" stroke-width="0" opacity="0.996078431372549" d="M 230.5 131 L 237 135.5 L 235.5 135 L 230.5 131 Z " /><path fill="rgb(154,122,54)" stroke="rgb(154,122,54)" stroke-width="0" opacity="0.996078431372549" d="M 243.5 139 Q 267.1 153.9 286 173.5 L 282.5 171 Q 265.7 154.9 245.5 142 L 243.5 139 Z " /><path fill="rgb(154,122,54)" stroke="rgb(154,122,54)" stroke-width="0" opacity="0.996078431372549" d="M 286.5 175 L 291 178.5 L 292 181.5 L 300 189.5 L 309 205.5 L 307 204.5 L 302 195.5 L 286.5 175 Z " /><path fill="rgb(154,122,54)" stroke="rgb(154,122,54)" stroke-width="0" opacity="0.996078431372549" d="M 163.5 177 L 164 180.5 L 162.5 186 L 162 181.5 L 163.5 177 Z " /><path fill="rgb(154,122,54)" stroke="rgb(154,122,54)" stroke-width="0" opacity="0.996078431372549" d="M 161.5 188 L 162 191.5 L 160.5 197 L 160 192.5 L 161.5 188 Z " /><path fill="rgb(154,122,54)" stroke="rgb(154,122,54)" stroke-width="0" opacity="0.996078431372549" d="M 157.5 211 L 158 227.5 L 157 228.5 L 157 245.5 L 155.5 255 L 154 230.5 L 157.5 211 Z " /><path fill="rgb(154,122,54)" stroke="rgb(154,122,54)" stroke-width="0" opacity="0.996078431372549" d="M 311.5 211 L 314 212.5 L 320 224.5 L 323 236 Q 320 237.3 321 233.5 L 311.5 211 Z " /><path fill="rgb(154,122,54)" stroke="rgb(154,122,54)" stroke-width="0" opacity="0.996078431372549" d="M 240.5 256 L 251 263.5 L 252 265.5 Q 250.5 268.5 249 265.5 L 246.5 262 L 240.5 256 Z " /><path fill="rgb(154,122,54)" stroke="rgb(154,122,54)" stroke-width="0" opacity="0.996078431372549" d="M 328.5 272 L 329 277.5 L 328 277.5 L 328.5 272 Z " /><path fill="rgb(154,122,54)" stroke="rgb(154,122,54)" stroke-width="0" opacity="0.996078431372549" d="M 328.5 282 L 329 297.5 L 328 297.5 L 328.5 282 Z " /><path fill="rgb(154,122,54)" stroke="rgb(154,122,54)" stroke-width="0" opacity="0.996078431372549" d="M 223.5 292 Q 236 295.5 244 303.5 L 241.5 302 L 224.5 294 L 223.5 292 Z " /><path fill="rgb(154,122,54)" stroke="rgb(154,122,54)" stroke-width="0" opacity="0.996078431372549" d="M 170.5 329 Q 181.4 345.6 196 358.5 L 179 342.5 L 170.5 329 Z " /><path fill="rgb(154,122,54)" stroke="rgb(154,122,54)" stroke-width="0" opacity="0.996078431372549" d="M 446.5 357 L 447 360 Q 453.2 358 452 362 L 447.5 361 L 446 361.5 L 446 359.5 L 446.5 357 Z " /><path fill="rgb(154,122,54)" stroke="rgb(154,122,54)" stroke-width="0" opacity="0.996078431372549" d="M 98.5 359 L 100 361.5 L 98.5 362 L 96.5 361 L 93.5 362 L 94.5 360 L 98.5 359 Z " /><path fill="rgb(154,122,54)" stroke="rgb(154,122,54)" stroke-width="0" opacity="0.996078431372549" d="M 277.5 378 L 279 378.5 L 279 386.5 L 278 386.5 Q 278.6 379.8 277.5 378 Z " /><path fill="rgb(154,122,54)" stroke="rgb(154,122,54)" stroke-width="0" opacity="0.996078431372549" d="M 388.5 406 L 390 406.5 L 383.5 410 L 384.5 408 L 388.5 406 Z " /><path fill="rgb(154,122,54)" stroke="rgb(154,122,54)" stroke-width="0" opacity="0.996078431372549" d="M 185 417 L 193 421.5 L 192.5 423 L 185 418.5 L 185 417 Z " /><path fill="rgb(154,122,54)" stroke="rgb(154,122,54)" stroke-width="0" opacity="0.996078431372549" d="M 355.5 424 L 357 424.5 L 349.5 429 L 349.5 428 L 355.5 424 Z " /><path fill="rgb(154,122,54)" stroke="rgb(154,122,54)" stroke-width="0" opacity="0.996078431372549" d="M 456.5 424 L 456 425.5 L 454.5 428 L 435.5 440 L 415 449 Q 413.9 446.3 416.5 447 L 443.5 433 L 456.5 424 Z " /><path fill="rgb(154,122,54)" stroke="rgb(154,122,54)" stroke-width="0" opacity="0.996078431372549" d="M 277.5 433 L 279 442.5 L 281 444.5 L 281 450.5 L 277.5 464 L 277 450.5 L 278 445.5 L 277 444.5 L 277.5 433 Z " /><path fill="rgb(154,122,54)" stroke="rgb(154,122,54)" stroke-width="0" opacity="0.996078431372549" d="M 168.5 461 L 179 465.5 L 175.5 466 L 168.5 462 L 168.5 461 Z " /><path fill="rgb(154,122,54)" stroke="rgb(154,122,54)" stroke-width="0" opacity="0.996078431372549" d="M 316.5 461 L 316 462.5 L 314.5 465 L 315 463.5 L 316.5 461 Z " /><path fill="rgb(154,122,54)" stroke="rgb(154,122,54)" stroke-width="0" opacity="0.996078431372549" d="M 231.5 470 L 238 471 L 246 484.5 L 253 504.5 L 259 530.5 L 261 557.5 L 262.5 562 L 265 560.5 Q 267.3 569.3 263 571.5 L 263 597.5 L 264 597.5 L 264.5 596 L 265 617.5 L 264 617.5 L 261.5 608 L 260 608.5 L 257 599 L 254 597.5 L 250 590.5 L 250.5 589 Q 247.9 589.8 249 586.5 L 245 578 Q 242.3 579.1 243 576.5 Q 233.9 562.1 221.5 551 Q 200.9 532.3 177 518 L 179 510.5 L 181.5 508 L 192 502 Q 190.3 497.9 194.5 499 L 206 490.5 L 208 487.5 L 214.5 480 L 218 476.5 L 220.5 474 Q 227.7 473.7 231.5 470 Z " /><path fill="rgb(154,122,54)" stroke="rgb(154,122,54)" stroke-width="0" opacity="0.996078431372549" d="M 314.5 474 L 334.5 475 Q 342.9 478.1 348 484.5 L 348 486.5 L 353 491.5 L 354 504.5 Q 350.7 509.2 352 518.5 L 353 522.5 Q 345.7 525.9 347 537 L 340.5 541 L 320 561.5 L 306 579.5 L 302 588.5 Q 304.5 590 301 591.5 L 299.5 593 L 299 595.5 L 293 608 L 291 608.5 L 291.5 610 Q 290.3 607.8 289 610.5 L 288 613.5 L 290 613.5 L 287.5 619 L 286 614.5 L 286 591.5 L 287 591.5 L 287.5 595 L 289 558.5 L 294 535.5 L 294 526.5 L 299 506.5 L 305 490.5 L 312 477 L 314 476.5 Q 311.8 475.3 314.5 474 Z " /><path fill="rgb(154,122,54)" stroke="rgb(154,122,54)" stroke-width="0" opacity="0.996078431372549" d="M 289.5 537 L 290 542 Q 287.3 543.1 288 540.5 L 289.5 537 Z " /></svg>
